<svg height="100pt" preserveAspectRatio="xMidYMid meet" viewBox="0 0 100 100" width="100pt" xmlns="http://www.w3.org/2000/svg"><g transform="matrix(.1 0 0 -.1 0 100)"><path d="m478 954c-6-56 3-155 15-151 14 4 14 154-1 169-7 7-11 2-14-18z"/><path d="m150 833c0-10 112-123 122-123 19 0 4 25-48 75-51 51-74 66-74 48z"/><path d="m771 800c-23-22-50-40-60-40s-38-7-62-15c-24-9-50-13-59-9-36 14-116 21-149 12-77-19-139-67-174-133-27-51-31-150-10-204 46-117 193-186 308-145 35 12 45 12 78-1 20-8 48-15 60-15 14 0 40-18 67-45 26-27 48-41 53-36s-4 23-23 42l-31 33 46 16c140 47 216 215 156 346-27 60-92 119-152 139l-51 17 31 32c57 59 34 64-28 6zm-212-82 23-8-26-25c-49-46-71-103-71-185 1-81 13-114 65-174l31-34-33-8c-215-47-366 187-233 362 49 65 169 100 244 72zm331-213c3-6-24-11-69-13-78-3-115 3-94 16 18 11 157 8 163-3z"/><path d="m20 503c0-10 24-13 86-13 64 0 85 3 82 12-6 18-168 18-168 1z"/><path d="m208 238c-32-33-55-65-52-70 8-12 124 101 124 119 0 23-14 14-72-49z"/><path d="m487 203c-11-11-8-173 3-173s11 0 13 93c2 69-3 93-16 80z"/></g></svg>