<svg fill="none" height="34" viewBox="0 0 53 34" width="53" xmlns="http://www.w3.org/2000/svg" xmlns:xlink="http://www.w3.org/1999/xlink"><linearGradient id="a" gradientUnits="userSpaceOnUse" x1="53" x2="43.7959" y1="-4.79916" y2="31.4509"><stop offset="0" stop-color="#35f787"/><stop offset=".322917" stop-color="#3cff8b"/><stop offset=".598958" stop-color="#62d6f4"/><stop offset=".947917" stop-color="#24b0ff"/></linearGradient><radialGradient id="b" cx="0" cy="0" gradientTransform="matrix(-6.96188297 41.39130018 -105.81073735 -17.7970242 14.3729 -7.3913)" gradientUnits="userSpaceOnUse" r="1"><stop offset="0" stop-color="#8ff087"/><stop offset="1" stop-color="#83ee41" stop-opacity="0"/></radialGradient><radialGradient id="c" cx="0" cy="0" gradientTransform="matrix(9.52796069 8.94053101 -13.99358901 14.9130254 14.1483 1.97101)" gradientUnits="userSpaceOnUse" r="1"><stop offset=".163814" stop-color="#d5ffde"/><stop offset="1" stop-color="#41eeba" stop-opacity="0"/></radialGradient><radialGradient id="d" cx="0" cy="0" gradientTransform="matrix(-11.22869297 24.863013 -57.01186123 -25.74783214 53 17.8834)" gradientUnits="userSpaceOnUse" r="1"><stop offset="0" stop-color="#6aff52"/><stop offset="1" stop-color="#41eee4" stop-opacity="0"/></radialGradient><g clip-rule="evenodd" fill-rule="evenodd"><path d="m35.7305 10.7041c-1.6729 1.6795-2.5093 2.5193-3.5487 2.5193s-1.8758-.8398-3.5487-2.5193l-8.1521-8.18478c-1.6729-1.679548-2.5093-2.51931997-3.5487-2.51932s-1.8758.839772-3.5487 2.51931l-10.87432 10.91779c-1.672852 1.6796-2.50928002 2.5194-2.50928 3.5629s.836428 1.8833 2.50928 3.5628l10.87432 10.9179c1.6729 1.6795 2.5093 2.5193 3.5487 2.5193s1.8758-.8398 3.5487-2.5193l8.1521-8.1847c1.6729-1.6796 2.5093-2.5194 3.5487-2.5194s1.8758.8398 3.5486 2.5194l2.4704 2.4802c1.6729 1.6795 2.5093 2.5193 3.5487 2.5193s1.8758-.8398 3.5486-2.5193l5.1926-5.2133c1.6729-1.6796 2.5093-2.5193 2.5093-3.5629 0-1.0435-.8364-1.8833-2.5093-3.5628l-5.1926-5.21335c-1.6728-1.67954-2.5092-2.51931-3.5486-2.51931s-1.8758.83977-3.5487 2.51931z" fill="#fff"/><path d="m35.7305 10.7041c-1.6729 1.6795-2.5093 2.5193-3.5487 2.5193s-1.8758-.8398-3.5487-2.5193l-8.1521-8.18478c-1.6729-1.679548-2.5093-2.51931997-3.5487-2.51932s-1.8758.839772-3.5487 2.51931l-10.87432 10.91779c-1.672852 1.6796-2.50928002 2.5194-2.50928 3.5629s.836428 1.8833 2.50928 3.5628l10.87432 10.9179c1.6729 1.6795 2.5093 2.5193 3.5487 2.5193s1.8758-.8398 3.5487-2.5193l8.1521-8.1847c1.6729-1.6796 2.5093-2.5194 3.5487-2.5194s1.8758.8398 3.5486 2.5194l2.4704 2.4802c1.6729 1.6795 2.5093 2.5193 3.5487 2.5193s1.8758-.8398 3.5486-2.5193l5.1926-5.2133c1.6729-1.6796 2.5093-2.5193 2.5093-3.5629 0-1.0435-.8364-1.8833-2.5093-3.5628l-5.1926-5.21335c-1.6728-1.67954-2.5092-2.51931-3.5486-2.51931s-1.8758.83977-3.5487 2.51931z" fill="url(#a)"/><g fill-opacity=".8"><path d="m35.7305 10.7041c-1.6729 1.6795-2.5093 2.5193-3.5487 2.5193s-1.8758-.8398-3.5487-2.5193l-8.1521-8.18478c-1.6729-1.679548-2.5093-2.51931997-3.5487-2.51932s-1.8758.839772-3.5487 2.51931l-10.87432 10.91779c-1.672852 1.6796-2.50928002 2.5194-2.50928 3.5629s.836428 1.8833 2.50928 3.5628l10.87432 10.9179c1.6729 1.6795 2.5093 2.5193 3.5487 2.5193s1.8758-.8398 3.5487-2.5193l8.1521-8.1847c1.6729-1.6796 2.5093-2.5194 3.5487-2.5194s1.8758.8398 3.5486 2.5194l2.4704 2.4802c1.6729 1.6795 2.5093 2.5193 3.5487 2.5193s1.8758-.8398 3.5486-2.5193l5.1926-5.2133c1.6729-1.6796 2.5093-2.5193 2.5093-3.5629 0-1.0435-.8364-1.8833-2.5093-3.5628l-5.1926-5.21335c-1.6728-1.67954-2.5092-2.51931-3.5486-2.51931s-1.8758.83977-3.5487 2.51931z" fill="url(#b)"/><path d="m35.7305 10.7041c-1.6729 1.6795-2.5093 2.5193-3.5487 2.5193s-1.8758-.8398-3.5487-2.5193l-8.1521-8.18478c-1.6729-1.679548-2.5093-2.51931997-3.5487-2.51932s-1.8758.839772-3.5487 2.51931l-10.87432 10.91779c-1.672852 1.6796-2.50928002 2.5194-2.50928 3.5629s.836428 1.8833 2.50928 3.5628l10.87432 10.9179c1.6729 1.6795 2.5093 2.5193 3.5487 2.5193s1.8758-.8398 3.5487-2.5193l8.1521-8.1847c1.6729-1.6796 2.5093-2.5194 3.5487-2.5194s1.8758.8398 3.5486 2.5194l2.4704 2.4802c1.6729 1.6795 2.5093 2.5193 3.5487 2.5193s1.8758-.8398 3.5486-2.5193l5.1926-5.2133c1.6729-1.6796 2.5093-2.5193 2.5093-3.5629 0-1.0435-.8364-1.8833-2.5093-3.5628l-5.1926-5.21335c-1.6728-1.67954-2.5092-2.51931-3.5486-2.51931s-1.8758.83977-3.5487 2.51931z" fill="url(#c)"/><path d="m35.7305 10.7041c-1.6729 1.6795-2.5093 2.5193-3.5487 2.5193s-1.8758-.8398-3.5487-2.5193l-8.1521-8.18478c-1.6729-1.679548-2.5093-2.51931997-3.5487-2.51932s-1.8758.839772-3.5487 2.51931l-10.87432 10.91779c-1.672852 1.6796-2.50928002 2.5194-2.50928 3.5629s.836428 1.8833 2.50928 3.5628l10.87432 10.9179c1.6729 1.6795 2.5093 2.5193 3.5487 2.5193s1.8758-.8398 3.5487-2.5193l8.1521-8.1847c1.6729-1.6796 2.5093-2.5194 3.5487-2.5194s1.8758.8398 3.5486 2.5194l2.4704 2.4802c1.6729 1.6795 2.5093 2.5193 3.5487 2.5193s1.8758-.8398 3.5486-2.5193l5.1926-5.2133c1.6729-1.6796 2.5093-2.5193 2.5093-3.5629 0-1.0435-.8364-1.8833-2.5093-3.5628l-5.1926-5.21335c-1.6728-1.67954-2.5092-2.51931-3.5486-2.51931s-1.8758.83977-3.5487 2.51931z" fill="url(#d)"/></g></g></svg>